<svg xmlns="http://www.w3.org/2000/svg" viewBox="0 0 640 360" role="img" aria-labelledby="title desc">
  <title id="title">Needlefish</title>
  <desc id="desc">Stylized local illustration of Needlefish for the MASOFISH identifiable species list.</desc>
  <defs>
    <linearGradient id="water" x1="0" y1="0" x2="1" y2="1">
      <stop offset="0" stop-color="#e2f6f6"/>
      <stop offset="1" stop-color="#75bbc0"/>
    </linearGradient>
    <linearGradient id="shine" x1="0" y1="0" x2="1" y2="1">
      <stop offset="0" stop-color="#ffffff" stop-opacity=".72"/>
      <stop offset=".55" stop-color="#ffffff" stop-opacity=".08"/>
      <stop offset="1" stop-color="#001e40" stop-opacity=".18"/>
    </linearGradient>
    <filter id="shadow" x="-20%" y="-20%" width="140%" height="140%">
      <feDropShadow dx="0" dy="10" stdDeviation="10" flood-color="#001e40" flood-opacity=".24"/>
    </filter>
  </defs>
  <rect width="640" height="360" rx="28" fill="url(#water)"/>
  <path d="M0 82 C120 48 202 116 320 76 S510 38 640 85 V0 H0Z" fill="#fff" opacity=".18"/>
  <path d="M0 308 C120 278 215 330 338 298 S532 276 640 312 V360 H0Z" fill="#006a65" opacity=".12"/>
  <g fill="none" stroke="#fff" stroke-width="5" opacity=".45">
    <circle cx="92" cy="92" r="12"/><circle cx="120" cy="66" r="7"/>
    <circle cx="548" cy="112" r="10"/><circle cx="574" cy="82" r="6"/>
  </g>
  <g filter="url(#shadow)">
    
    <path d="M101 190 L53 160 L72 190 L53 221 L104 202Z" fill="#527e7e" stroke="#001e40" stroke-width="4"/>
    <path d="M98 194 C205 148 376 153 503 183 C522 188 540 192 554 193 C538 203 519 211 496 217 C347 251 198 235 98 194Z" fill="#7da6a6" stroke="#001e40" stroke-width="5"/>
    <path d="M98 194 C214 170 378 174 509 199" fill="none" stroke="#e9f8f8" stroke-width="8" opacity=".75"/>
    <path d="M544 192 L622 181 L553 201Z" fill="#6d9292" stroke="#001e40" stroke-width="4"/>
    <path d="M544 200 L620 216 L551 207Z" fill="#5f8585" stroke="#001e40" stroke-width="4"/>
    <circle cx="510" cy="184" r="10" fill="#fff" stroke="#001e40" stroke-width="4"/>
    <circle cx="513" cy="184" r="4" fill="#001e40"/>
    <path d="M248 163 L283 115 L303 164Z" fill="#527e7e" stroke="#001e40" stroke-width="4"/>
    
  </g>
  <g transform="translate(24 320)">
    <rect width="210" height="24" rx="12" fill="#001e40" opacity=".72"/>
    <text x="14" y="17" fill="#fff" font-family="Inter,Arial,sans-serif" font-size="12" font-weight="800" letter-spacing="1.4">NEEDLEFISH</text>
  </g>
</svg>
